<svg width="1430" height="440" viewBox="0 0 1430 440" fill="none" xmlns="http://www.w3.org/2000/svg">
<circle opacity="0.1" cx="1005" cy="220" r="220" fill="#F37128"/>
<path d="M21.024 323H13.248L18.864 292.616H2.592L2.448 285.704H20.16L24.768 260.648H8.496V253.736H26.064L31.68 223.496H39.456L33.84 253.736H53.568L59.184 223.496H66.96L61.344 253.736H77.76V260.648H60.048L55.44 285.704H71.712L71.856 292.616H54.144L48.528 323H40.752L46.368 292.616H26.64L21.024 323ZM47.664 285.704L52.272 260.648H32.544L27.936 285.704H47.664ZM152.016 248.984V261.944C155.184 256.952 158.688 253.208 162.528 250.712C166.368 248.216 171.072 246.968 176.64 246.968C182.016 246.968 186.528 248.264 190.176 250.856C193.92 253.352 196.464 256.856 197.808 261.368C202.896 251.768 211.104 246.968 222.432 246.968C229.152 246.968 234.768 248.936 239.28 252.872C243.888 256.712 246.192 262.472 246.192 270.152V323H237.12V272.6C237.12 260.888 231.408 255.032 219.984 255.032C213.456 255.032 208.368 257.096 204.72 261.224C201.168 265.256 199.392 270.728 199.392 277.64V323H190.464V273.32C190.464 261.128 185.04 255.032 174.192 255.032C166.992 255.032 161.568 257.432 157.92 262.232C154.368 267.032 152.592 273.272 152.592 280.952V323H143.52V248.984H152.016ZM382.993 315.656V322.568C380.785 323.336 378.385 323.72 375.793 323.72C371.857 323.72 369.265 322.52 368.017 320.12C366.769 317.72 366.145 314.408 366.145 310.184C359.905 320.072 350.593 325.016 338.209 325.016C330.625 325.016 324.673 323.192 320.353 319.544C316.129 315.896 314.017 310.808 314.017 304.28C314.017 290.936 323.185 283.304 341.521 281.384C342.481 281.288 343.825 281.192 345.553 281.096C347.281 280.904 348.529 280.76 349.297 280.664C350.161 280.568 351.217 280.472 352.465 280.376C353.809 280.184 354.769 280.04 355.345 279.944C356.017 279.848 356.785 279.704 357.649 279.512C358.609 279.32 359.329 279.128 359.809 278.936C360.385 278.744 360.961 278.552 361.537 278.36C362.113 278.072 362.641 277.784 363.121 277.496C364.849 276.344 365.713 273.992 365.713 270.44C365.713 264.584 364.081 260.456 360.817 258.056C357.553 255.656 352.753 254.456 346.417 254.456C340.177 254.456 335.377 255.896 332.017 258.776C328.753 261.56 326.833 265.928 326.257 271.88H317.617C318.001 263.912 320.785 257.768 325.969 253.448C331.153 249.128 338.305 246.968 347.425 246.968C355.873 246.968 362.497 248.792 367.297 252.44C372.193 256.088 374.641 261.368 374.641 268.28V308.6C374.641 310.52 374.689 311.912 374.785 312.776C374.881 313.544 375.265 314.312 375.937 315.08C376.705 315.752 377.905 316.088 379.537 316.088C380.785 316.088 381.937 315.944 382.993 315.656ZM365.713 282.68C364.849 283.64 363.409 284.456 361.393 285.128C359.473 285.704 357.697 286.136 356.065 286.424C354.433 286.712 351.649 287.096 347.713 287.576C346.753 287.672 346.033 287.768 345.553 287.864C342.481 288.248 339.937 288.68 337.921 289.16C336.001 289.64 333.745 290.456 331.153 291.608C328.657 292.664 326.737 294.2 325.393 296.216C324.145 298.136 323.521 300.536 323.521 303.416C323.521 307.736 325.057 311.192 328.129 313.784C331.201 316.28 335.329 317.528 340.513 317.528C347.521 317.528 353.473 315.464 358.369 311.336C363.265 307.112 365.713 301.592 365.713 294.776V282.68ZM456.657 220.472V323H447.729V220.472H456.657ZM537.955 220.472V323H529.027V220.472H537.955ZM641.573 246.824C652.229 246.824 660.677 250.376 666.917 257.48C673.253 264.584 676.421 274.184 676.421 286.28C676.421 298.28 673.301 307.784 667.061 314.792C660.821 321.704 652.325 325.16 641.573 325.16C630.821 325.16 622.229 321.656 615.797 314.648C609.461 307.544 606.293 297.992 606.293 285.992C606.293 274.088 609.461 264.584 615.797 257.48C622.229 250.376 630.821 246.824 641.573 246.824ZM660.293 263.096C655.589 257.336 649.301 254.456 641.429 254.456C633.557 254.456 627.269 257.336 622.565 263.096C617.861 268.76 615.509 276.392 615.509 285.992C615.509 295.784 617.813 303.512 622.421 309.176C627.125 314.84 633.557 317.672 641.717 317.672C649.589 317.672 655.829 314.84 660.437 309.176C665.045 303.512 667.349 295.832 667.349 286.136C667.349 276.44 664.997 268.76 660.293 263.096ZM775.301 220.328V227.96C773.285 227.672 771.269 227.528 769.253 227.528C767.141 227.528 765.365 227.768 763.925 228.248C762.581 228.728 761.525 229.304 760.757 229.976C760.085 230.552 759.557 231.608 759.173 233.144C758.885 234.584 758.693 235.784 758.597 236.744C758.597 237.704 758.597 239.336 758.597 241.64V248.984H773.429V256.328H758.597V323H749.525V256.328H736.853V248.984H749.525V240.488C749.525 233.48 750.917 228.296 753.701 224.936C756.581 221.48 761.477 219.752 768.389 219.752C770.213 219.752 772.517 219.944 775.301 220.328ZM845.686 220.472V262.952C847.894 257.768 851.302 253.784 855.91 251C860.614 248.12 865.99 246.68 872.038 246.68C882.118 246.68 890.134 250.232 896.086 257.336C902.134 264.44 905.158 273.944 905.158 285.848C905.158 297.944 902.134 307.544 896.086 314.648C890.038 321.656 881.878 325.16 871.606 325.16C865.27 325.16 859.798 323.768 855.19 320.984C850.582 318.104 847.222 313.976 845.11 308.6V323H836.902V220.472H845.686ZM870.742 254.312C862.966 254.312 856.774 257.192 852.166 262.952C847.654 268.616 845.398 276.296 845.398 285.992C845.398 295.688 847.702 303.416 852.31 309.176C856.918 314.936 863.11 317.816 870.886 317.816C878.47 317.816 884.518 314.936 889.03 309.176C893.638 303.416 895.942 295.688 895.942 285.992C895.942 276.296 893.638 268.616 889.03 262.952C884.518 257.192 878.422 254.312 870.742 254.312ZM1039.11 315.656V322.568C1036.9 323.336 1034.5 323.72 1031.91 323.72C1027.97 323.72 1025.38 322.52 1024.13 320.12C1022.89 317.72 1022.26 314.408 1022.26 310.184C1016.02 320.072 1006.71 325.016 994.326 325.016C986.742 325.016 980.79 323.192 976.47 319.544C972.246 315.896 970.134 310.808 970.134 304.28C970.134 290.936 979.302 283.304 997.638 281.384C998.598 281.288 999.942 281.192 1001.67 281.096C1003.4 280.904 1004.65 280.76 1005.41 280.664C1006.28 280.568 1007.33 280.472 1008.58 280.376C1009.93 280.184 1010.89 280.04 1011.46 279.944C1012.13 279.848 1012.9 279.704 1013.77 279.512C1014.73 279.32 1015.45 279.128 1015.93 278.936C1016.5 278.744 1017.08 278.552 1017.65 278.36C1018.23 278.072 1018.76 277.784 1019.24 277.496C1020.97 276.344 1021.83 273.992 1021.83 270.44C1021.83 264.584 1020.2 260.456 1016.93 258.056C1013.67 255.656 1008.87 254.456 1002.53 254.456C996.294 254.456 991.494 255.896 988.134 258.776C984.87 261.56 982.95 265.928 982.374 271.88H973.734C974.118 263.912 976.902 257.768 982.086 253.448C987.27 249.128 994.422 246.968 1003.54 246.968C1011.99 246.968 1018.61 248.792 1023.41 252.44C1028.31 256.088 1030.76 261.368 1030.76 268.28V308.6C1030.76 310.52 1030.81 311.912 1030.9 312.776C1031 313.544 1031.38 314.312 1032.05 315.08C1032.82 315.752 1034.02 316.088 1035.65 316.088C1036.9 316.088 1038.05 315.944 1039.11 315.656ZM1021.83 282.68C1020.97 283.64 1019.53 284.456 1017.51 285.128C1015.59 285.704 1013.81 286.136 1012.18 286.424C1010.55 286.712 1007.77 287.096 1003.83 287.576C1002.87 287.672 1002.15 287.768 1001.67 287.864C998.598 288.248 996.054 288.68 994.038 289.16C992.118 289.64 989.862 290.456 987.27 291.608C984.774 292.664 982.854 294.2 981.51 296.216C980.262 298.136 979.638 300.536 979.638 303.416C979.638 307.736 981.174 311.192 984.246 313.784C987.318 316.28 991.446 317.528 996.63 317.528C1003.64 317.528 1009.59 315.464 1014.49 311.336C1019.38 307.112 1021.83 301.592 1021.83 294.776V282.68ZM1112.77 220.472V323H1103.85V220.472H1112.77ZM1214.38 248.984V256.328H1199.11V303.272C1199.11 305.768 1199.16 307.544 1199.26 308.6C1199.35 309.56 1199.64 310.76 1200.12 312.2C1200.7 313.544 1201.66 314.456 1203 314.936C1204.34 315.416 1206.17 315.656 1208.47 315.656C1209.82 315.656 1211.78 315.512 1214.38 315.224V323C1211.4 323.384 1208.76 323.576 1206.46 323.576C1197.53 323.576 1192.39 320.744 1191.05 315.08C1190.47 312.68 1190.18 307.256 1190.18 298.808V256.328H1177.08V248.984H1190.18V226.376H1199.11V248.984H1214.38ZM1291.4 220.04V234.872H1282.33V220.04H1291.4ZM1291.4 248.984V323H1282.33V248.984H1291.4ZM1428.43 315.656V322.568C1426.22 323.336 1423.82 323.72 1421.23 323.72C1417.29 323.72 1414.7 322.52 1413.45 320.12C1412.2 317.72 1411.58 314.408 1411.58 310.184C1405.34 320.072 1396.03 325.016 1383.64 325.016C1376.06 325.016 1370.11 323.192 1365.79 319.544C1361.56 315.896 1359.45 310.808 1359.45 304.28C1359.45 290.936 1368.62 283.304 1386.96 281.384C1387.92 281.288 1389.26 281.192 1390.99 281.096C1392.72 280.904 1393.96 280.76 1394.73 280.664C1395.6 280.568 1396.65 280.472 1397.9 280.376C1399.24 280.184 1400.2 280.04 1400.78 279.944C1401.45 279.848 1402.22 279.704 1403.08 279.512C1404.04 279.32 1404.76 279.128 1405.24 278.936C1405.82 278.744 1406.4 278.552 1406.97 278.36C1407.55 278.072 1408.08 277.784 1408.56 277.496C1410.28 276.344 1411.15 273.992 1411.15 270.44C1411.15 264.584 1409.52 260.456 1406.25 258.056C1402.99 255.656 1398.19 254.456 1391.85 254.456C1385.61 254.456 1380.81 255.896 1377.45 258.776C1374.19 261.56 1372.27 265.928 1371.69 271.88H1363.05C1363.44 263.912 1366.22 257.768 1371.4 253.448C1376.59 249.128 1383.74 246.968 1392.86 246.968C1401.31 246.968 1407.93 248.792 1412.73 252.44C1417.63 256.088 1420.08 261.368 1420.08 268.28V308.6C1420.08 310.52 1420.12 311.912 1420.22 312.776C1420.32 313.544 1420.7 314.312 1421.37 315.08C1422.14 315.752 1423.34 316.088 1424.97 316.088C1426.22 316.088 1427.37 315.944 1428.43 315.656ZM1411.15 282.68C1410.28 283.64 1408.84 284.456 1406.83 285.128C1404.91 285.704 1403.13 286.136 1401.5 286.424C1399.87 286.712 1397.08 287.096 1393.15 287.576C1392.19 287.672 1391.47 287.768 1390.99 287.864C1387.92 288.248 1385.37 288.68 1383.36 289.16C1381.44 289.64 1379.18 290.456 1376.59 291.608C1374.09 292.664 1372.17 294.2 1370.83 296.216C1369.58 298.136 1368.96 300.536 1368.96 303.416C1368.96 307.736 1370.49 311.192 1373.56 313.784C1376.64 316.28 1380.76 317.528 1385.95 317.528C1392.96 317.528 1398.91 315.464 1403.8 311.336C1408.7 307.112 1411.15 301.592 1411.15 294.776V282.68Z" fill="#111111"/>
<mask id="mask0" mask-type="alpha" maskUnits="userSpaceOnUse" x="2" y="219" width="1427" height="107">
<path d="M21.024 323H13.248L18.864 292.616H2.592L2.448 285.704H20.16L24.768 260.648H8.496V253.736H26.064L31.68 223.496H39.456L33.84 253.736H53.568L59.184 223.496H66.96L61.344 253.736H77.76V260.648H60.048L55.44 285.704H71.712L71.856 292.616H54.144L48.528 323H40.752L46.368 292.616H26.64L21.024 323ZM47.664 285.704L52.272 260.648H32.544L27.936 285.704H47.664ZM152.016 248.984V261.944C155.184 256.952 158.688 253.208 162.528 250.712C166.368 248.216 171.072 246.968 176.64 246.968C182.016 246.968 186.528 248.264 190.176 250.856C193.92 253.352 196.464 256.856 197.808 261.368C202.896 251.768 211.104 246.968 222.432 246.968C229.152 246.968 234.768 248.936 239.28 252.872C243.888 256.712 246.192 262.472 246.192 270.152V323H237.12V272.6C237.12 260.888 231.408 255.032 219.984 255.032C213.456 255.032 208.368 257.096 204.72 261.224C201.168 265.256 199.392 270.728 199.392 277.64V323H190.464V273.32C190.464 261.128 185.04 255.032 174.192 255.032C166.992 255.032 161.568 257.432 157.92 262.232C154.368 267.032 152.592 273.272 152.592 280.952V323H143.52V248.984H152.016ZM382.993 315.656V322.568C380.785 323.336 378.385 323.72 375.793 323.72C371.857 323.72 369.265 322.52 368.017 320.12C366.769 317.72 366.145 314.408 366.145 310.184C359.905 320.072 350.593 325.016 338.209 325.016C330.625 325.016 324.673 323.192 320.353 319.544C316.129 315.896 314.017 310.808 314.017 304.28C314.017 290.936 323.185 283.304 341.521 281.384C342.481 281.288 343.825 281.192 345.553 281.096C347.281 280.904 348.529 280.76 349.297 280.664C350.161 280.568 351.217 280.472 352.465 280.376C353.809 280.184 354.769 280.04 355.345 279.944C356.017 279.848 356.785 279.704 357.649 279.512C358.609 279.32 359.329 279.128 359.809 278.936C360.385 278.744 360.961 278.552 361.537 278.36C362.113 278.072 362.641 277.784 363.121 277.496C364.849 276.344 365.713 273.992 365.713 270.44C365.713 264.584 364.081 260.456 360.817 258.056C357.553 255.656 352.753 254.456 346.417 254.456C340.177 254.456 335.377 255.896 332.017 258.776C328.753 261.56 326.833 265.928 326.257 271.88H317.617C318.001 263.912 320.785 257.768 325.969 253.448C331.153 249.128 338.305 246.968 347.425 246.968C355.873 246.968 362.497 248.792 367.297 252.44C372.193 256.088 374.641 261.368 374.641 268.28V308.6C374.641 310.52 374.689 311.912 374.785 312.776C374.881 313.544 375.265 314.312 375.937 315.08C376.705 315.752 377.905 316.088 379.537 316.088C380.785 316.088 381.937 315.944 382.993 315.656ZM365.713 282.68C364.849 283.64 363.409 284.456 361.393 285.128C359.473 285.704 357.697 286.136 356.065 286.424C354.433 286.712 351.649 287.096 347.713 287.576C346.753 287.672 346.033 287.768 345.553 287.864C342.481 288.248 339.937 288.68 337.921 289.16C336.001 289.64 333.745 290.456 331.153 291.608C328.657 292.664 326.737 294.2 325.393 296.216C324.145 298.136 323.521 300.536 323.521 303.416C323.521 307.736 325.057 311.192 328.129 313.784C331.201 316.28 335.329 317.528 340.513 317.528C347.521 317.528 353.473 315.464 358.369 311.336C363.265 307.112 365.713 301.592 365.713 294.776V282.68ZM456.657 220.472V323H447.729V220.472H456.657ZM537.955 220.472V323H529.027V220.472H537.955ZM641.573 246.824C652.229 246.824 660.677 250.376 666.917 257.48C673.253 264.584 676.421 274.184 676.421 286.28C676.421 298.28 673.301 307.784 667.061 314.792C660.821 321.704 652.325 325.16 641.573 325.16C630.821 325.16 622.229 321.656 615.797 314.648C609.461 307.544 606.293 297.992 606.293 285.992C606.293 274.088 609.461 264.584 615.797 257.48C622.229 250.376 630.821 246.824 641.573 246.824ZM660.293 263.096C655.589 257.336 649.301 254.456 641.429 254.456C633.557 254.456 627.269 257.336 622.565 263.096C617.861 268.76 615.509 276.392 615.509 285.992C615.509 295.784 617.813 303.512 622.421 309.176C627.125 314.84 633.557 317.672 641.717 317.672C649.589 317.672 655.829 314.84 660.437 309.176C665.045 303.512 667.349 295.832 667.349 286.136C667.349 276.44 664.997 268.76 660.293 263.096ZM775.301 220.328V227.96C773.285 227.672 771.269 227.528 769.253 227.528C767.141 227.528 765.365 227.768 763.925 228.248C762.581 228.728 761.525 229.304 760.757 229.976C760.085 230.552 759.557 231.608 759.173 233.144C758.885 234.584 758.693 235.784 758.597 236.744C758.597 237.704 758.597 239.336 758.597 241.64V248.984H773.429V256.328H758.597V323H749.525V256.328H736.853V248.984H749.525V240.488C749.525 233.48 750.917 228.296 753.701 224.936C756.581 221.48 761.477 219.752 768.389 219.752C770.213 219.752 772.517 219.944 775.301 220.328ZM845.686 220.472V262.952C847.894 257.768 851.302 253.784 855.91 251C860.614 248.12 865.99 246.68 872.038 246.68C882.118 246.68 890.134 250.232 896.086 257.336C902.134 264.44 905.158 273.944 905.158 285.848C905.158 297.944 902.134 307.544 896.086 314.648C890.038 321.656 881.878 325.16 871.606 325.16C865.27 325.16 859.798 323.768 855.19 320.984C850.582 318.104 847.222 313.976 845.11 308.6V323H836.902V220.472H845.686ZM870.742 254.312C862.966 254.312 856.774 257.192 852.166 262.952C847.654 268.616 845.398 276.296 845.398 285.992C845.398 295.688 847.702 303.416 852.31 309.176C856.918 314.936 863.11 317.816 870.886 317.816C878.47 317.816 884.518 314.936 889.03 309.176C893.638 303.416 895.942 295.688 895.942 285.992C895.942 276.296 893.638 268.616 889.03 262.952C884.518 257.192 878.422 254.312 870.742 254.312ZM1291.4 220.04V234.872H1282.33V220.04H1291.4ZM1291.4 248.984V323H1282.33V248.984H1291.4ZM1428.43 315.656V322.568C1426.22 323.336 1423.82 323.72 1421.23 323.72C1417.29 323.72 1414.7 322.52 1413.45 320.12C1412.2 317.72 1411.58 314.408 1411.58 310.184C1405.34 320.072 1396.03 325.016 1383.64 325.016C1376.06 325.016 1370.11 323.192 1365.79 319.544C1361.56 315.896 1359.45 310.808 1359.45 304.28C1359.45 290.936 1368.62 283.304 1386.96 281.384C1387.92 281.288 1389.26 281.192 1390.99 281.096C1392.72 280.904 1393.96 280.76 1394.73 280.664C1395.6 280.568 1396.65 280.472 1397.9 280.376C1399.24 280.184 1400.2 280.04 1400.78 279.944C1401.45 279.848 1402.22 279.704 1403.08 279.512C1404.04 279.32 1404.76 279.128 1405.24 278.936C1405.82 278.744 1406.4 278.552 1406.97 278.36C1407.55 278.072 1408.08 277.784 1408.56 277.496C1410.28 276.344 1411.15 273.992 1411.15 270.44C1411.15 264.584 1409.52 260.456 1406.25 258.056C1402.99 255.656 1398.19 254.456 1391.85 254.456C1385.61 254.456 1380.81 255.896 1377.45 258.776C1374.19 261.56 1372.27 265.928 1371.69 271.88H1363.05C1363.44 263.912 1366.22 257.768 1371.4 253.448C1376.59 249.128 1383.74 246.968 1392.86 246.968C1401.31 246.968 1407.93 248.792 1412.73 252.44C1417.63 256.088 1420.08 261.368 1420.08 268.28V308.6C1420.08 310.52 1420.12 311.912 1420.22 312.776C1420.32 313.544 1420.7 314.312 1421.37 315.08C1422.14 315.752 1423.34 316.088 1424.97 316.088C1426.22 316.088 1427.37 315.944 1428.43 315.656ZM1411.15 282.68C1410.28 283.64 1408.84 284.456 1406.83 285.128C1404.91 285.704 1403.13 286.136 1401.5 286.424C1399.87 286.712 1397.08 287.096 1393.15 287.576C1392.19 287.672 1391.47 287.768 1390.99 287.864C1387.92 288.248 1385.37 288.68 1383.36 289.16C1381.44 289.64 1379.18 290.456 1376.59 291.608C1374.09 292.664 1372.17 294.2 1370.83 296.216C1369.58 298.136 1368.96 300.536 1368.96 303.416C1368.96 307.736 1370.49 311.192 1373.56 313.784C1376.64 316.28 1380.76 317.528 1385.95 317.528C1392.96 317.528 1398.91 315.464 1403.8 311.336C1408.7 307.112 1411.15 301.592 1411.15 294.776V282.68Z" fill="#111111"/>
<path d="M1039.11 315.656V322.568C1036.9 323.336 1034.5 323.72 1031.91 323.72C1027.97 323.72 1025.38 322.52 1024.13 320.12C1022.89 317.72 1022.26 314.408 1022.26 310.184C1016.02 320.072 1006.71 325.016 994.326 325.016C986.742 325.016 980.79 323.192 976.47 319.544C972.246 315.896 970.134 310.808 970.134 304.28C970.134 290.936 979.302 283.304 997.638 281.384C998.598 281.288 999.942 281.192 1001.67 281.096C1003.4 280.904 1004.65 280.76 1005.41 280.664C1006.28 280.568 1007.33 280.472 1008.58 280.376C1009.93 280.184 1010.89 280.04 1011.46 279.944C1012.13 279.848 1012.9 279.704 1013.77 279.512C1014.73 279.32 1015.45 279.128 1015.93 278.936C1016.5 278.744 1017.08 278.552 1017.65 278.36C1018.23 278.072 1018.76 277.784 1019.24 277.496C1020.97 276.344 1021.83 273.992 1021.83 270.44C1021.83 264.584 1020.2 260.456 1016.93 258.056C1013.67 255.656 1008.87 254.456 1002.53 254.456C996.294 254.456 991.494 255.896 988.134 258.776C984.87 261.56 982.95 265.928 982.374 271.88H973.734C974.118 263.912 976.902 257.768 982.086 253.448C987.27 249.128 994.422 246.968 1003.54 246.968C1011.99 246.968 1018.61 248.792 1023.41 252.44C1028.31 256.088 1030.76 261.368 1030.76 268.28V308.6C1030.76 310.52 1030.81 311.912 1030.9 312.776C1031 313.544 1031.38 314.312 1032.05 315.08C1032.82 315.752 1034.02 316.088 1035.65 316.088C1036.9 316.088 1038.05 315.944 1039.11 315.656ZM1021.83 282.68C1020.97 283.64 1019.53 284.456 1017.51 285.128C1015.59 285.704 1013.81 286.136 1012.18 286.424C1010.55 286.712 1007.77 287.096 1003.83 287.576C1002.87 287.672 1002.15 287.768 1001.67 287.864C998.598 288.248 996.054 288.68 994.038 289.16C992.118 289.64 989.862 290.456 987.27 291.608C984.774 292.664 982.854 294.2 981.51 296.216C980.262 298.136 979.638 300.536 979.638 303.416C979.638 307.736 981.174 311.192 984.246 313.784C987.318 316.28 991.446 317.528 996.63 317.528C1003.64 317.528 1009.59 315.464 1014.49 311.336C1019.38 307.112 1021.83 301.592 1021.83 294.776V282.68ZM1112.77 220.472V323H1103.85V220.472H1112.77ZM1214.38 248.984V256.328H1199.11V303.272C1199.11 305.768 1199.16 307.544 1199.26 308.6C1199.35 309.56 1199.64 310.76 1200.12 312.2C1200.7 313.544 1201.66 314.456 1203 314.936C1204.34 315.416 1206.17 315.656 1208.47 315.656C1209.82 315.656 1211.78 315.512 1214.38 315.224V323C1211.4 323.384 1208.76 323.576 1206.46 323.576C1197.53 323.576 1192.39 320.744 1191.05 315.08C1190.47 312.68 1190.18 307.256 1190.18 298.808V256.328H1177.08V248.984H1190.18V226.376H1199.11V248.984H1214.38Z" fill="white"/>
</mask>
<g mask="url(#mask0)">
<circle cx="1005" cy="220" r="220" fill="#F37128"/>
</g>
</svg>
