<svg width="138" height="22" viewBox="0 0 138 22" fill="none" xmlns="http://www.w3.org/2000/svg">
<path d="M60.4344 14.1003C62.1567 14.1003 63.5529 12.7122 63.5529 11C63.5529 9.28781 62.1567 7.89978 60.4344 7.89978C58.7121 7.89978 57.3159 9.28781 57.3159 11C57.3159 12.7122 58.7121 14.1003 60.4344 14.1003Z" fill="#F37128"/>
<path d="M134.883 15.795L130.871 9.86324L126.879 3.89011C125.528 1.86462 123.262 0.665863 120.829 0.665863C118.397 0.665863 116.131 1.86462 114.779 3.89011L106.796 15.795C106.214 16.6631 105.258 17.1798 104.197 17.1798C103.137 17.1798 102.181 16.6838 101.599 15.795L97.2535 9.3052L93.636 3.89011C92.2846 1.86462 90.0185 0.665863 87.5861 0.665863C86.8169 0.665863 86.0684 0.789872 85.3616 1.01722C85.3408 1.01722 85.32 1.03789 85.2992 1.03789C85.1953 1.07923 85.0705 1.12056 84.9666 1.1619C83.5736 1.69928 82.3678 2.62935 81.5154 3.91078L72.8876 15.8984C72.3054 16.7044 71.3491 17.2005 70.3512 17.2005H68.7711C70.0809 15.4643 70.8501 13.3355 70.8501 11C70.8501 5.29556 66.1932 0.665863 60.4551 0.665863C54.7171 0.665863 50.0601 5.29556 50.0601 11C50.0601 13.3148 50.8293 15.4643 52.1391 17.2005H50.6422C49.6443 17.2005 48.688 16.7251 48.1059 15.8984L39.4572 3.86945C38.1059 1.86462 35.8397 0.686529 33.4281 0.686529C30.9957 0.686529 28.7295 1.88529 27.3782 3.91078L25.1329 7.27971L22.846 3.89011C21.4946 1.86462 19.2285 0.665863 16.7961 0.665863C14.3636 0.665863 12.0975 1.86462 10.7462 3.89011L2.76282 15.795C2.18069 16.6631 1.22435 17.1798 0.164062 17.1798V21.3135C2.59649 21.3135 4.86261 20.1147 6.21396 18.0892L14.1973 6.18429C14.7794 5.31622 15.7358 4.79952 16.7961 4.79952C17.8564 4.79952 18.8127 5.29556 19.3948 6.18429L23.0539 11.62V16.1051C23.0539 17.7585 23.6984 19.3086 24.8626 20.4867L25.715 21.3341L28.6672 18.4199L27.8148 17.5725C27.4198 17.1798 27.2119 16.6631 27.2119 16.1051V11.62L30.8501 6.18429C31.4323 5.31622 32.3886 4.79952 33.4489 4.79952C34.5092 4.79952 35.4655 5.29556 36.0476 6.18429L44.7587 18.2959C46.1308 20.1974 48.3345 21.3135 50.6838 21.3135H59.3325H60.268C60.3304 21.3135 60.4135 21.3135 60.4759 21.3135C60.5383 21.3135 60.6214 21.3135 60.6838 21.3135H61.7233H70.372C72.7212 21.3135 74.925 20.1767 76.2971 18.2959L84.9666 6.2463L85.0081 6.18429C85.3824 5.64692 85.8813 5.23355 86.4634 5.0062C86.8169 4.88219 87.1911 4.79952 87.5861 4.79952C88.6464 4.79952 89.6027 5.29556 90.1849 6.18429L93.8231 11.5994L94.1765 12.1368L98.1682 18.0892C99.5196 20.1147 101.786 21.3135 104.218 21.3135C106.651 21.3135 108.917 20.1147 110.268 18.0892L118.251 6.18429C118.834 5.31622 119.79 4.79952 120.85 4.79952C121.91 4.79952 122.867 5.29556 123.449 6.18429L127.461 12.1574L131.474 18.0892C132.763 20.032 135.029 21.2515 137.378 21.2721L137.42 17.1385C136.588 17.1385 135.507 16.7251 134.883 15.795ZM60.4343 4.79952C63.8647 4.79952 66.6713 7.58973 66.6713 11C66.6713 14.3483 63.9894 17.0971 60.6422 17.2005H60.2264C56.8792 17.0971 54.1973 14.3483 54.1973 11C54.1973 7.58973 57.004 4.79952 60.4343 4.79952Z" fill="#12919C"/>
</svg>
