<?xml version="1.0" encoding="UTF-8" standalone="no"?>
<svg
   xmlns:dc="http://purl.org/dc/elements/1.1/"
   xmlns:cc="http://creativecommons.org/ns#"
   xmlns:rdf="http://www.w3.org/1999/02/22-rdf-syntax-ns#"
   xmlns:svg="http://www.w3.org/2000/svg"
   xmlns="http://www.w3.org/2000/svg"
   xmlns:sodipodi="http://sodipodi.sourceforge.net/DTD/sodipodi-0.dtd"
   xmlns:inkscape="http://www.inkscape.org/namespaces/inkscape"
   width="361.88699"
   height="7.6586699"
   viewBox="0 0 361.88699 7.6586699"
   version="1.1"
   id="svg46"
   sodipodi:docname="underline-section.svg"
   style="fill:none"
   inkscape:version="0.92.5 (2060ec1f9f, 2020-04-08)">
  <metadata
     id="metadata50">
    <rdf:RDF>
      <cc:Work
         rdf:about="">
        <dc:format>image/svg+xml</dc:format>
        <dc:type
           rdf:resource="http://purl.org/dc/dcmitype/StillImage" />
      </cc:Work>
    </rdf:RDF>
  </metadata>
  <sodipodi:namedview
     pagecolor="#ffffff"
     bordercolor="#666666"
     borderopacity="1"
     objecttolerance="10"
     gridtolerance="10"
     guidetolerance="10"
     inkscape:pageopacity="0"
     inkscape:pageshadow="2"
     inkscape:window-width="1920"
     inkscape:window-height="1026"
     id="namedview48"
     showgrid="false"
     inkscape:zoom="1.1667262"
     inkscape:cx="290.42653"
     inkscape:cy="-70.415813"
     inkscape:window-x="0"
     inkscape:window-y="0"
     inkscape:window-maximized="1"
     inkscape:current-layer="svg46" />
  <g
     clip-path="url(#clip1)"
     id="g8"
     transform="translate(-362,-0.170898)">
    <path
       d="m 717.137,3.19655 c -3.997,-4.008988 -10.502,-4.008988 -14.499,0 -1.508,1.51282 -3.507,2.34488 -5.637,2.34488 -2.131,0 -4.129,-0.83206 -5.638,-2.34488 -1.942,-1.94776 -4.506,-3.025652 -7.24,-3.025652 -2.733,0 -5.316,1.077892 -7.24,3.025652 -1.508,1.51282 -3.506,2.34488 -5.637,2.34488 -2.131,0 -4.129,-0.83206 -5.637,-2.34488 -3.997,-4.008988 -10.502,-4.008988 -14.499,0 -1.509,1.51282 -3.507,2.34488 -5.638,2.34488 -2.13,0 -4.129,-0.83206 -5.637,-2.34488 -3.997,-4.008988 -10.502,-4.008988 -14.499,0 -1.508,1.51282 -3.507,2.34488 -5.637,2.34488 -2.131,0 -4.129,-0.83206 -5.638,-2.34488 -3.997,-4.008988 -10.501,-4.008988 -14.499,0 -1.508,1.51282 -3.506,2.34488 -5.637,2.34488 -2.13,0 -4.129,-0.83206 -5.637,-2.34488 -3.997,-4.008988 -10.502,-4.008988 -14.499,0 -1.508,1.51282 -3.507,2.34488 -5.638,2.34488 -2.13,0 -4.129,-0.83206 -5.637,-2.34488 -1.942,-1.94776 -4.506,-3.025652 -7.24,-3.025652 -2.734,0 -5.298,1.077892 -7.24,3.025652 -1.508,1.51282 -3.507,2.34488 -5.637,2.34488 -2.131,0 -4.129,-0.83206 -5.638,-2.34488 -3.997,-4.027898 -10.502,-4.027898 -14.499,0 -1.508,1.51282 -3.506,2.34488 -5.637,2.34488 -2.131,0 -4.129,-0.83206 -5.637,-2.34488 -3.997,-4.027898 -10.483,-4.027898 -14.48,0 -1.509,1.51282 -3.507,2.34488 -5.638,2.34488 -2.13,0 -4.129,-0.83206 -5.637,-2.34488 -3.997,-4.008988 -10.502,-4.008988 -14.499,0 -1.508,1.51282 -3.507,2.34488 -5.637,2.34488 -2.131,0 -4.129,-0.83206 -5.638,-2.34488 -3.997,-4.027898 -10.502,-4.027898 -14.499,0 -1.508,1.51282 -3.507,2.34488 -5.637,2.34488 -2.131,0 -4.129,-0.83206 -5.637,-2.34488 -3.998,-4.027898 -10.502,-4.027898 -14.48,0 -1.509,1.51282 -3.507,2.34488 -5.638,2.34488 -2.13,0 -4.129,-0.83206 -5.637,-2.34488 -3.997,-4.008988 -10.502,-4.008988 -14.499,0 -1.508,1.51282 -3.507,2.34488 -5.638,2.34488 -2.13,0 -4.129,-0.83206 -5.637,-2.34488 -3.997,-4.027898 -10.502,-4.027898 -14.499,0 -1.47,1.475 -3.412,2.30705 -5.467,2.34488 H 362 v 2.28814 h 0.189 c 2.677,-0.03782 5.184,-1.11571 7.07,-3.00674 3.111,-3.13911 8.183,-3.13911 11.275,-0.01891 1.942,1.94777 4.506,3.02565 7.24,3.02565 2.733,0 5.317,-1.07788 7.24,-3.02565 3.129,-3.1202 8.182,-3.1202 11.293,0 1.942,1.94777 4.506,3.02565 7.24,3.02565 2.734,0 5.317,-1.07788 7.24,-3.02565 1.509,-1.51282 3.507,-2.34487 5.638,-2.34487 2.13,0 4.129,0.83205 5.637,2.34487 1.942,1.94777 4.506,3.02565 7.24,3.02565 2.734,0 5.317,-1.07788 7.24,-3.02565 3.13,-3.1202 8.202,-3.1202 11.313,0 1.942,1.94777 4.506,3.02565 7.24,3.02565 2.733,0 5.316,-1.07788 7.24,-3.02565 3.111,-3.1202 8.163,-3.1202 11.274,0 1.942,1.94777 4.507,3.02565 7.24,3.02565 2.734,0 5.317,-1.07788 7.24,-3.02565 3.111,-3.1202 8.164,-3.1202 11.275,0 1.942,1.94777 4.506,3.02565 7.24,3.02565 2.734,0 5.317,-1.07788 7.24,-3.02565 3.111,-3.1202 8.164,-3.1202 11.275,0 1.942,1.94777 4.506,3.02565 7.24,3.02565 2.734,0 5.317,-1.07788 7.24,-3.02565 1.508,-1.51282 3.507,-2.34487 5.637,-2.34487 2.131,0 4.129,0.83205 5.638,2.34487 1.942,1.94777 4.506,3.02565 7.24,3.02565 2.734,0 5.317,-1.07788 7.24,-3.02565 3.111,-3.1202 8.164,-3.1202 11.275,0 1.942,1.94777 4.506,3.02565 7.24,3.02565 2.733,0 5.316,-1.07788 7.24,-3.02565 3.11,-3.1202 8.163,-3.1202 11.274,0 1.942,1.94777 4.506,3.02565 7.24,3.02565 2.734,0 5.317,-1.07788 7.24,-3.02565 3.111,-3.1202 8.164,-3.1202 11.275,0 1.942,1.94777 4.506,3.02565 7.24,3.02565 2.734,0 5.317,-1.07788 7.24,-3.02565 3.111,-3.1202 8.164,-3.1202 11.275,0 1.942,1.94777 4.506,3.02565 7.24,3.02565 2.734,0 5.317,-1.07788 7.24,-3.02565 1.508,-1.51282 3.507,-2.34487 5.637,-2.34487 2.131,0 4.129,0.83205 5.638,2.34487 1.942,1.94777 4.506,3.02565 7.24,3.02565 2.734,0 5.317,-1.07788 7.24,-3.02565 3.111,-3.1202 8.164,-3.1202 11.274,0 2.188,2.1936 5.223,3.27149 8.315,2.95001 l 0.17,-0.01891 V 5.42796 l -0.208,0.01891 c -2.356,0.34039 -4.789,-0.49166 -6.542,-2.25032 z"
       id="path6"
       inkscape:connector-curvature="0"
       style="fill:#111111" />
  </g>
  <defs
     id="defs44">
    <clipPath
       id="clip0">
      <rect
         width="362"
         height="7.6586699"
         transform="translate(0,0.170898)"
         id="rect26"
         x="0"
         y="0"
         style="fill:#ffffff" />
    </clipPath>
    <clipPath
       id="clip1">
      <rect
         width="362"
         height="7.6586699"
         transform="translate(362,0.170898)"
         id="rect29"
         x="0"
         y="0"
         style="fill:#ffffff" />
    </clipPath>
    <clipPath
       id="clip2">
      <rect
         width="362"
         height="7.6586699"
         transform="translate(724,0.170898)"
         id="rect32"
         x="0"
         y="0"
         style="fill:#ffffff" />
    </clipPath>
    <clipPath
       id="clip3">
      <rect
         width="362"
         height="7.6586699"
         transform="translate(1086,0.170898)"
         id="rect35"
         x="0"
         y="0"
         style="fill:#ffffff" />
    </clipPath>
    <clipPath
       id="clip4">
      <rect
         width="362"
         height="7.6586699"
         transform="translate(1448,0.170898)"
         id="rect38"
         x="0"
         y="0"
         style="fill:#ffffff" />
    </clipPath>
    <clipPath
       id="clip5">
      <rect
         width="115"
         height="8"
         transform="translate(1810)"
         id="rect41"
         x="0"
         y="0"
         style="fill:#ffffff" />
    </clipPath>
  </defs>
</svg>
