<?xml version="1.0" encoding="UTF-8" standalone="no"?>
<svg
   xmlns:dc="http://purl.org/dc/elements/1.1/"
   xmlns:cc="http://creativecommons.org/ns#"
   xmlns:rdf="http://www.w3.org/1999/02/22-rdf-syntax-ns#"
   xmlns:svg="http://www.w3.org/2000/svg"
   xmlns="http://www.w3.org/2000/svg"
   xmlns:sodipodi="http://sodipodi.sourceforge.net/DTD/sodipodi-0.dtd"
   xmlns:inkscape="http://www.inkscape.org/namespaces/inkscape"
   width="262"
   height="5"
   viewBox="0 0 262 5"
   version="1.1"
   id="svg4"
   sodipodi:docname="underline-nav.svg"
   style="fill:none"
   inkscape:version="0.92.5 (2060ec1f9f, 2020-04-08)">
  <metadata
     id="metadata10">
    <rdf:RDF>
      <cc:Work
         rdf:about="">
        <dc:format>image/svg+xml</dc:format>
        <dc:type
           rdf:resource="http://purl.org/dc/dcmitype/StillImage" />
      </cc:Work>
    </rdf:RDF>
  </metadata>
  <defs
     id="defs8" />
  <sodipodi:namedview
     pagecolor="#ffffff"
     bordercolor="#666666"
     borderopacity="1"
     objecttolerance="10"
     gridtolerance="10"
     guidetolerance="10"
     inkscape:pageopacity="0"
     inkscape:pageshadow="2"
     inkscape:window-width="1920"
     inkscape:window-height="1026"
     id="namedview6"
     showgrid="false"
     inkscape:zoom="3.2727273"
     inkscape:cx="60.5"
     inkscape:cy="2.5"
     inkscape:window-x="0"
     inkscape:window-y="0"
     inkscape:window-maximized="1"
     inkscape:current-layer="svg4" />
  <path
     d="m 257.113,1.97531 c -2.894,-2.617285 -7.603,-2.617285 -10.497,0 -1.092,0.98765 -2.539,1.53086 -4.081,1.53086 -1.543,0 -2.989,-0.54321 -4.081,-1.53086 C 237.048,0.703704 235.191,0 233.212,0 c -1.979,0 -3.849,0.703704 -5.242,1.97531 -1.092,0.98765 -2.539,1.53086 -4.081,1.53086 -1.543,0 -2.989,-0.54321 -4.081,-1.53086 -2.894,-2.617285 -7.604,-2.617285 -10.497,0 -1.092,0.98765 -2.539,1.53086 -4.082,1.53086 -1.542,0 -2.989,-0.54321 -4.081,-1.53086 -2.894,-2.617285 -7.603,-2.617285 -10.497,0 -1.092,0.98765 -2.539,1.53086 -4.081,1.53086 -1.543,0 -2.99,-0.54321 -4.082,-1.53086 -2.894,-2.617285 -7.603,-2.617285 -10.497,0 -1.092,0.98765 -2.539,1.53086 -4.081,1.53086 -1.543,0 -2.99,-0.54321 -4.082,-1.53086 -2.893,-2.617285 -7.603,-2.617285 -10.496,0 -1.092,0.98765 -2.539,1.53086 -4.082,1.53086 -1.542,0 -2.989,-0.54321 -4.081,-1.53086 C 143.763,0.703704 141.906,0 139.927,0 c -1.979,0 -3.836,0.703704 -5.241,1.97531 -1.092,0.98765 -2.539,1.53086 -4.082,1.53086 -1.542,0 -2.989,-0.54321 -4.081,-1.53086 -2.894,-2.629631 -7.603,-2.629631 -10.497,0 -1.092,0.98765 -2.539,1.53086 -4.082,1.53086 -1.542,0 -2.989,-0.54321 -4.081,-1.53086 -2.894,-2.629631 -7.589,-2.629631 -10.4832,0 -1.092,0.98765 -2.5389,1.53086 -4.0814,1.53086 -1.5424,0 -2.9893,-0.54321 -4.0814,-1.53086 -2.8938,-2.617285 -7.6031,-2.617285 -10.4969,0 -1.092,0.98765 -2.5389,1.53086 -4.0814,1.53086 -1.5424,0 -2.9893,-0.54321 -4.0813,-1.53086 -2.8939,-2.629631 -7.6031,-2.629631 -10.497,0 -1.092,0.98765 -2.5389,1.53086 -4.0813,1.53086 -1.5425,0 -2.9894,-0.54321 -4.0814,-1.53086 -2.8938,-2.629631 -7.6031,-2.629631 -10.4833,0 -1.092,0.98765 -2.5389,1.53086 -4.0814,1.53086 -1.5424,0 -2.9894,-0.54321 -4.0814,-1.53086 -2.8938,-2.617285 -7.6031,-2.617285 -10.4969,0 -1.092,0.98765 -2.5389,1.53086 -4.0814,1.53086 -1.5424,0 -2.9893,-0.54321 -4.0813,-1.53086 -2.8939,-2.629631 -7.60315,-2.629631 -10.49697,0 C 3.03032,2.93827 1.62436,3.48148 0.136501,3.50617 H 0 V 5 H 0.136501 C 2.07482,4.97531 3.89028,4.27161 5.25529,3.03704 7.50755,0.987654 11.1794,0.987654 13.418,3.02469 14.824,4.2963 16.6804,5 18.6597,5 c 1.9792,0 3.8493,-0.7037 5.2416,-1.97531 2.2659,-2.037036 5.9242,-2.037036 8.1764,0 C 33.4837,4.2963 35.3401,5 37.3194,5 c 1.9792,0 3.8493,-0.7037 5.2416,-1.97531 1.092,-0.98765 2.5389,-1.53086 4.0814,-1.53086 1.5424,0 2.9894,0.54321 4.0814,1.53086 C 52.1297,4.2963 53.9861,5 55.9654,5 c 1.9793,0 3.8493,-0.7037 5.2416,-1.97531 2.266,-2.037036 5.9378,-2.037036 8.1901,0 C 70.8031,4.2963 72.6595,5 74.6387,5 c 1.9793,0 3.8494,-0.7037 5.2417,-1.97531 2.2522,-2.037036 5.9105,-2.037036 8.1627,0 C 89.4491,4.2963 91.3055,5 93.2848,5 c 1.9792,0 3.8493,-0.7037 5.2416,-1.97531 2.2526,-2.037036 5.9106,-2.037036 8.1626,0 C 108.095,4.2963 109.952,5 111.931,5 c 1.979,0 3.849,-0.7037 5.241,-1.97531 2.253,-2.037036 5.911,-2.037036 8.163,0 C 126.741,4.2963 128.598,5 130.577,5 c 1.979,0 3.849,-0.7037 5.241,-1.97531 1.092,-0.98765 2.539,-1.53086 4.082,-1.53086 1.542,0 2.989,0.54321 4.081,1.53086 C 145.387,4.2963 147.244,5 149.223,5 c 1.979,0 3.849,-0.7037 5.242,-1.97531 2.252,-2.037036 5.91,-2.037036 8.162,0 C 164.033,4.2963 165.89,5 167.869,5 c 1.979,0 3.849,-0.7037 5.242,-1.97531 2.252,-2.037036 5.91,-2.037036 8.162,0 C 182.679,4.2963 184.536,5 186.515,5 c 1.979,0 3.849,-0.7037 5.242,-1.97531 2.252,-2.037036 5.91,-2.037036 8.162,0 C 201.325,4.2963 203.182,5 205.161,5 c 1.979,0 3.849,-0.7037 5.242,-1.97531 2.252,-2.037036 5.91,-2.037036 8.162,0 C 219.971,4.2963 221.828,5 223.807,5 c 1.979,0 3.849,-0.7037 5.242,-1.97531 1.092,-0.98765 2.539,-1.53086 4.081,-1.53086 1.543,0 2.989,0.54321 4.081,1.53086 C 238.617,4.2963 240.474,5 242.453,5 c 1.979,0 3.849,-0.7037 5.242,-1.97531 2.252,-2.037036 5.91,-2.037036 8.162,0 1.584,1.4321 3.782,2.1358 6.02,1.92593 L 262,4.93827 V 3.4321 l -0.15,0.01234 c -1.706,0.22223 -3.467,-0.32098 -4.737,-1.46913 z"
     id="path2"
     inkscape:connector-curvature="0"
     style="fill:#12919c" />
</svg>
